<svg width="24" height="24" viewBox="0 0 24 24" fill="none" xmlns="http://www.w3.org/2000/svg">
  <path d="M20.84 4.61C20.33 4.1 19.72 3.7 19.05 3.42C18.38 3.14 17.66 3 16.93 3C16.2 3 15.48 3.14 14.81 3.42C14.14 3.7 13.53 4.1 13.02 4.61L12 5.63L10.98 4.61C9.95 3.58 8.55 3 7.09 3C5.63 3 4.23 3.58 3.2 4.61C2.17 5.64 1.59 7.04 1.59 8.5C1.59 9.96 2.17 11.36 3.2 12.39L4.22 13.41L12 21.19L19.78 13.41L20.8 12.39C21.31 11.88 21.71 11.27 21.99 10.6C22.27 9.93 22.41 9.21 22.41 8.48C22.41 7.75 22.27 7.03 21.99 6.36C21.71 5.69 21.31 5.08 20.8 4.57L20.84 4.61Z" stroke="currentColor" stroke-width="1.8" stroke-linecap="round" stroke-linejoin="round"></path>
</svg>
